<?xml version="1.0" encoding="utf-8"?>
<!-- Generator: Adobe Illustrator 21.1.0, SVG Export Plug-In . SVG Version: 6.00 Build 0)  -->
<svg version="1.1" id="Layer_1" xmlns="http://www.w3.org/2000/svg" xmlns:xlink="http://www.w3.org/1999/xlink" x="0px" y="0px"
	 viewBox="0 0 610.5 148.5" style="enable-background:new 0 0 610.5 148.5;" xml:space="preserve">
<style type="text/css">
	.st0{fill:none;stroke:#FF0000;stroke-miterlimit:10;}
	.st1{fill:#FFFFFF;stroke:#000000;stroke-miterlimit:10;}
</style>
<g id="Layer_1_1_">
</g>
<path class="st0" d="M198.6,74.8c0,0,13.9-11.8,13.9-35c0-11.6-5.5-18.5-11.1-22.4c-4.6-3.2-10.1-4.9-15.7-5l-31.6-0.8
	c-1.4,0-2.6,1.1-2.6,2.5l0.5,110c0,1.2,1,2.3,2.2,2.3c5,0.3,16.3,0.4,17.8,0.4c2.1,0,1.9-3.6,1.9-3.6l0.2-31.9c0-1,0.5-2,1.5-2.3
	c3.1-1.3,4,5.6,4,5.6s8.2,28.2,16.7,33.2c5.8,3.4,11,2,13.7,0.8c0.9-0.4,1.3-1.6,0.7-2.4C204.3,116.3,198.6,74.8,198.6,74.8z
	 M186.8,56.8c0,0-2.2,9.8-8.6,15c-0.9,0.7-2,0.9-3,0.4c-0.8-0.4-1.6-1.1-1.7-2.2c0,0,0.1-40.8,0.1-42.5s0.2-4.2,2.6-4.3
	c2.4-0.1,6.7-1.1,10.6,8.7C190.7,41.5,186.8,56.8,186.8,56.8z"/>
<path class="st0" d="M238.4,39.7c0,0-24.1-3.1-25.6,41.2s22.7,47.4,22.7,47.4s29.1,7.1,29.1-45.1C264.6,41.7,238.4,39.7,238.4,39.7z
	 M244.6,107.9c0,11-5.4,11-5.4,11c-4.6-1-5-6.2-6-13.1s-0.8-25.8-0.8-39.3s5.6-17.1,5.6-17.1c5.6,1.9,5.4,7.9,6.9,15.8
	C246.3,73.2,244.6,96.9,244.6,107.9z"/>
<path class="st0" d="M271.9,41.8l0.1-15.4c0,0-0.4-2.9,1.2-3.5s13.8-4,13.8-4s2.9-1.3,3.1,0.9s0,22.3,0,22.3h4.3c0,0,1,0,1,2.1
	s0,5.7,0,5.7s-0.3,1-1.5,1s-4.1,0.3-4.1,5.6s0,54.5,0,54.5s-0.6,6.6,5.1,8.8c0,0,2.1,0.4,1,3.2c-1,2.8-1.8,5.6-1.8,5.6h-16.9
	c0,0-5.9-0.3-5.9-6.3s0.4-67.1,0.4-67.1s0.4-5-1.8-5c-2.2,0-2.6,0-2.6-1.6s0-5.7,0-5.7S267.3,40.5,271.9,41.8z"/>
<path class="st0" d="M346,105.1l-8.9-4.6c0,0-1.2-0.2-1.2,1.9s2.3,10.1-4.1,15c0,0-9.2,4-11.9-5.8c-2.7-9.9-2.3-15.6-2.3-15.6
	l27.1-17.5c0,0,2.3-0.6,2.3-3.7s1.7-33.1-22.6-33.7c-22.8-0.6-25.7,33.5-25.7,33.5s-3.1,31.8,11.5,47.8c8.8,9.6,18.7,7.2,25.2,3.8
	c7.2-3.8,12-11.3,11.7-19.5l0,0C347.1,106.1,346.6,105.5,346,105.1z M322.3,50.1c0,0,5.5-0.8,5.8,6.8c0.4,7.6,0.8,11.3,0.8,11.3
	s1,7.6-1.6,10.1l-9.7,6.4l-0.4-20.3C317.2,64.5,317,53,322.3,50.1z"/>
<path class="st1" d="M138.7,102.5l-8.1-4.1c-1-0.5-2.3,0.2-2.3,1.3c0,0,0,0,0,0.1c0,2.1,2.3,10-3.9,14.9c-0.1,0.1-0.3,0.2-0.4,0.2
	c-1.5,0.5-9.2,2.9-11.7-5.9c-2.1-7.7-2.4-12.8-2.4-14.7c0-0.5,0.3-1,0.7-1.3l26.2-17c0.1-0.1,0.2-0.1,0.3-0.1c0.5-0.2,2.2-1,2.2-3.7
	c0-3.1,1.7-33.1-22.6-33.7C94,37.8,91.1,71.9,91.1,71.9s-3.1,31.8,11.5,47.8c8.8,9.6,18.7,7.2,25.2,3.8c7.2-3.8,12-11.3,11.7-19.5
	c0-0.1,0-0.2,0-0.3C139.5,103.2,139.2,102.7,138.7,102.5z M114.3,47.5c0.3-0.2,0.6-0.2,0.9-0.2c1.4,0,5,0.7,5.3,6.8
	c0.4,7.6,0.8,11.3,0.8,11.3s0.9,7.3-1.4,10c-0.1,0.1-0.2,0.2-0.3,0.3l-7.2,4.8c-1,0.7-2.4,0-2.4-1.3l-0.3-17.5
	C109.6,61.8,109.4,50.8,114.3,47.5z"/>
<path class="st1" d="M596.8,108.9l-9.9-5.1c0,0-1.2-0.2-1.2,1.9s2.3,10.1-4.1,15c0,0-9.2,4-11.9-5.8c-2.7-9.9-2.3-15.6-2.3-15.6
	l27.1-17.5c0,0,2.3-0.6,2.3-3.7s1.7-33.1-22.6-33.7c-22.8-0.6-25.7,33.5-25.7,33.5s-3.1,31.8,11.5,47.8c8.8,9.6,18.7,7.2,25.2,3.8
	c7.2-3.8,12-11.3,11.7-19.5C596.9,109.7,596.8,109.3,596.8,108.9z M572,53.3c0,0,5.5-0.8,5.8,6.8c0.4,7.6,0.8,11.3,0.8,11.3
	s1,7.6-1.6,10.1l-9.7,6.4L567,67.8C567,67.8,566.8,56.2,572,53.3z"/>
<circle class="st1" cx="77.4" cy="22.1" r="8.8"/>
<path class="st1" d="M83.5,125.7h-13c-1.1,0-2.1-0.9-2.1-2.1V41.1c0-1.1,0.9-2.1,2.1-2.1h13c1.1,0,2.1,0.9,2.1,2.1v82.6
	C85.5,124.8,84.6,125.7,83.5,125.7z"/>
<path class="st1" d="M500.6,46.3v80.1c0,0-0.5,3.5,1.6,3.5s12,0,12,0s3.7,0.8,3.7-1.1c0-1.9,0.5-32.5,0.5-36.7
	c0-4.3,0.3-27.7,0.3-27.7s3.2-5.6,7.2-4.5c0,0,2.4,1.3,2.4,4.8c0,3.5,1.9,61.5,1.9,61.5s-0.5,3.7,1.6,3.7s12,0.5,12,0.5
	s2.7,0,2.7-1.6c0-1.6,1.1-11.7,0.8-20.8s-2.4-37.8-2.4-41.8s3.2-19.4-9.1-20.8c0,0-7.7-2.1-18.1,8l-0.8-5.3c0,0,0-2.9-3.2-2.9
	C510.5,45.2,501.2,43.9,500.6,46.3z"/>
<path class="st1" d="M453.7,19.3l-2,107.1c0,0-0.5,3.5,1.6,3.5s12,0,12,0s3.7,0.8,3.7-1.1c0-1.9,0.5-32.5,0.5-36.7
	c0-4.3,1.3-31.7,1.3-31.7s3.2-5.6,7.2-4.5c0,0,2.4,1.3,2.4,4.8s0.9,65.5,0.9,65.5s-0.5,3.7,1.6,3.7s12,0.5,12,0.5s2.7,0,2.7-1.6
	c0-1.6,0.1-11.7-0.2-20.8s0.6-37.8,0.6-41.8s2.2-22.4-10.1-23.8c0,0-7.7-2.1-18.1,8l0.2-29.3c0,0,0-2.9-3.2-2.9
	C463.6,18.2,454.3,16.9,453.7,19.3z"/>
<path class="st1" d="M448.5,124.3c0,0,0.8-56.2,0.8-68.1c0-12-9.6-12.5-9.6-12.5c-17-4-32.2,4.3-32.2,4.3c-2.1,1.3-1.1,4.3-1.1,4.3
	s4,8,6.1,9.8c2.1,1.9,3.7-1.1,3.7-1.1c4-6.1,10.6-8.5,10.6-8.5c6.4,0.5,4.5,9.1,4.5,11.4s-2.1,3.7-9.6,4.3
	c-7.5,0.5-11.4,10.6-11.4,10.6s-10.1,19.7-8.8,33.5s8.8,18.4,15.7,18.6c6.9,0.3,13-6.4,13-6.4c-0.3,2.7,1.1,5.3,1.1,5.3
	s12.5,0.3,15.2,0.3s1.9-2.9,1.9-2.9L448.5,124.3L448.5,124.3z M430.9,84.3V107c0,0,0,9.3-5.3,10.6c-5.3,1.3-6.7-10.4-6.7-10.4
	s0.5-15.2,4.3-21c3.7-5.9,4.5-7.2,5.6-7.2S431.4,79,430.9,84.3z"/>
<path class="st1" d="M357.2,124.1L358,15.9c0,0,0.3-4.1,3.9-4.1s31.8,1.9,31.8,1.9s5.3-1.4,6.6,0.3s1.4,4.1,1.4,4.1
	s-2.2,11.6-3,11.6s-2.2,0.8-2.2,0.8s-8.3-7.7-14.9-5.3c0,0-2.2,1.7-1.7,27.7c0,0,12.4-4.4,18.5-0.8l0.6,11.1c0,0,0.8,2.2-2.5,2.2
	c0,0-11.3-6.4-15.8-0.6l-1.7,59.5c0,0,1.1,5.3-1.7,5.3s-17.7-0.6-17.7-0.6S357.4,128.5,357.2,124.1z"/>
<path class="st1" d="M62.4,46.2C56.9,15.9,40,14.7,40,14.7l-7.5-1.2c-4.2-0.7-8.5-0.8-12.7-0.3L12,14.1c-1.5,0.1-2.7,1.4-2.7,2.9
	v107.7c0,1.5,1.1,2.8,2.6,2.9c5.3,0.6,25.4,1.5,31.6-1.2c8.1-3.6,15.7-19.1,15.7-19.1S67.9,76.4,62.4,46.2z M27.7,115l-0.6-0.3
	c-1-0.4-1.5-1.6-1.7-3.8L25.1,32c0,0-0.1-5.6,2.2-6h0.4c14.3,0,15,19.9,15,44.5C42.6,95.1,42,115,27.7,115z"/>
</svg>
